<svg width="810" height="810" viewBox="0 0 810 810" fill="none" xmlns="http://www.w3.org/2000/svg">
<g clip-path="url(#clip0_177_28)">
<path d="M0.967285 404.888C0.967285 181.481 182.073 0.375 405.481 0.375C628.888 0.375 809.994 181.481 809.99 404.888C809.99 628.296 628.884 809.402 405.481 809.398C182.073 809.398 0.967285 628.292 0.967285 404.888ZM405.481 789.142C617.7 789.142 789.738 617.104 789.734 404.888C789.734 192.669 617.696 20.6306 405.481 20.6306C193.261 20.6306 21.2229 192.669 21.2229 404.888C21.2229 617.108 193.261 789.146 405.481 789.142Z" fill="#F3A83C"/>
<path d="M405.479 805.354C626.651 805.354 805.946 626.059 805.946 404.887C805.946 183.715 626.651 4.4201 405.479 4.4201C184.308 4.4201 5.01245 183.715 5.01245 404.887C5.01245 626.059 184.308 805.354 405.479 805.354Z" fill="#F3A83C"/>
<g clip-path="url(#clip1_177_28)">
<g clip-path="url(#clip2_177_28)">
<path d="M403.701 374.958C406.36 374.216 408.849 373.287 411.199 372.198C413.545 371.096 415.509 369.8 417.05 368.303C419.559 365.871 419.983 364.06 418.273 362.88C416.574 361.695 412.692 360.65 406.6 359.74L387.906 377.486C390.208 377.366 392.76 377.101 395.548 376.696C398.322 376.282 401.048 375.709 403.701 374.958Z" fill="white"/>
<path d="M411.546 345.25L427.563 330.264C425.526 330.326 423.393 330.538 421.139 330.899C418.919 331.256 416.665 331.781 414.426 332.46C412.172 333.143 410.106 333.962 408.185 334.93C406.268 335.893 404.612 337.02 403.239 338.291C401.067 340.295 400.643 341.807 401.963 342.857C403.316 343.892 406.504 344.696 411.546 345.25Z" fill="white"/>
<path d="M525.667 418.511C527.343 418.511 528.937 417.846 530.122 416.671L644.084 305.54C645.876 303.744 646.42 301.042 645.447 298.688C644.479 296.337 642.182 294.806 639.639 294.806H289.59C288.073 294.806 286.609 295.35 285.463 296.347L167.195 407.478C165.221 409.197 164.513 411.966 165.433 414.417C166.348 416.883 168.703 418.511 171.327 418.511H525.667ZM344.955 365.726L370.642 365.524C366.756 368.977 365.619 371.693 367.204 373.677C368.807 375.675 372.091 376.947 377.09 377.491L397.624 358.281C397.147 358.166 396.473 358.045 395.626 357.901C394.744 357.761 393.781 357.641 392.712 357.525C388.908 356.976 385.262 356.321 381.809 355.56C378.361 354.804 375.665 353.779 373.724 352.469C371.764 351.178 370.878 349.546 371.056 347.576C371.249 345.611 372.997 343.131 376.32 340.145C379.71 337.097 383.856 334.376 388.787 331.978C393.704 329.57 398.944 327.514 404.52 325.8C410.092 324.076 415.856 322.689 421.813 321.639C427.76 320.584 433.525 319.872 439.072 319.496L446.609 312.436L457.174 312.017L449.657 319.12C454.68 319.246 459.081 319.674 462.847 320.411C466.632 321.162 469.474 322.275 471.395 323.753C473.336 325.241 474.202 327.148 474.034 329.479C473.865 331.814 472.295 334.612 469.295 337.892L443.724 338.494C446.214 336.004 446.917 333.928 445.867 332.272C444.803 330.62 442.26 329.854 438.186 329.97L420.869 346.334C422.121 346.488 423.378 346.642 424.693 346.796C426.003 346.955 427.346 347.147 428.772 347.364C436.385 348.443 441.62 349.873 444.533 351.636C447.442 353.417 449.007 355.305 449.238 357.289C449.474 359.283 448.79 361.286 447.158 363.309C445.511 365.331 443.893 367.128 442.294 368.717C440.873 370.104 438.437 371.861 434.941 373.98C431.478 376.099 426.966 378.175 421.442 380.192C415.904 382.196 409.408 383.977 401.958 385.514C394.489 387.045 386.009 387.946 376.551 388.215L368.234 396.07L357.336 395.968L365.682 388.157C352.516 387.599 344.103 385.466 340.448 381.762C336.817 378.098 338.324 372.767 344.955 365.726Z" fill="white"/>
<path d="M533.035 441.582H166.526V466.749H538.251C541.574 466.749 544.776 465.425 547.14 463.06L645.924 365.187V328.684L533.035 441.582Z" fill="white"/>
<path d="M166.526 489.801V514.968H550.834C554.162 514.968 557.364 513.639 559.724 511.279L645.924 425.45V389.491L545.633 489.801H166.526Z" fill="white"/>
</g>
</g>
</g>
<defs>
<clipPath id="clip0_177_28">
<rect width="809.024" height="809.024" fill="white" transform="translate(0.967285 0.375)"/>
</clipPath>
<clipPath id="clip1_177_28">
<rect width="480.89" height="220.162" fill="white" transform="translate(165.034 294.806)"/>
</clipPath>
<clipPath id="clip2_177_28">
<rect width="480.89" height="220.162" fill="white" transform="translate(165.034 294.806)"/>
</clipPath>
</defs>
</svg>
