<svg xmlns="http://www.w3.org/2000/svg" version="1.1" xmlns:xlink="http://www.w3.org/1999/xlink" xmlns:svgjs="http://svgjs.dev/svgjs" width="2000" height="1500" viewBox="0 0 2000 1500"><rect width="2000" height="1500" fill="#ffffff"></rect><g transform="matrix(0.75,0,0,0.75,250.47929931047952,111.89210526315787)"><svg viewBox="0 0 290 247" data-background-color="#ffffff" preserveAspectRatio="xMidYMid meet" height="1703" width="2000" xmlns="http://www.w3.org/2000/svg" xmlns:xlink="http://www.w3.org/1999/xlink"><g id="tight-bounds" transform="matrix(1,0,0,1,-0.0926645333593683,-0.09999999999999432)"><svg viewBox="0 0 290.18532906671874 247.2" height="247.2" width="290.18532906671874"><g><svg viewBox="0 0 395.52 336.931382142756" height="247.2" width="290.18532906671874"><g transform="matrix(1,0,0,1,0,241.19544341703994)"><svg viewBox="0 0 395.52 95.73593872571607" height="95.73593872571607" width="395.52"><g id="textblocktransform"><svg viewBox="0 0 395.52 95.73593872571607" height="95.73593872571607" width="395.52" id="textblock"><g><svg viewBox="0 0 395.52 59.20153477218225" height="59.20153477218225" width="395.52"><g transform="matrix(1,0,0,1,0,0)"><svg width="395.52" viewBox="1.65 -37 250.18 37.45" height="59.20153477218225" data-palette-color="#191919"><path d="M29.2-14.45Q29.2-12.95 29-11.75L29-11.75 8.75-11.75Q9-8.75 10.85-7.05 12.7-5.35 15.4-5.35L15.4-5.35Q19.3-5.35 20.95-8.7L20.95-8.7 28.5-8.7Q27.3-4.7 23.9-2.13 20.5 0.45 15.55 0.45L15.55 0.45Q11.55 0.45 8.38-1.33 5.2-3.1 3.43-6.35 1.65-9.6 1.65-13.85L1.65-13.85Q1.65-18.15 3.4-21.4 5.15-24.65 8.3-26.4 11.45-28.15 15.55-28.15L15.55-28.15Q19.5-28.15 22.63-26.45 25.75-24.75 27.48-21.63 29.2-18.5 29.2-14.45L29.2-14.45ZM8.8-16.45L21.95-16.45Q21.9-19.15 20-20.78 18.1-22.4 15.35-22.4L15.35-22.4Q12.75-22.4 10.98-20.83 9.2-19.25 8.8-16.45L8.8-16.45ZM54.1-17.9Q57.05-17.35 58.95-14.95 60.85-12.55 60.85-9.45L60.85-9.45Q60.85-6.65 59.47-4.53 58.1-2.4 55.5-1.2 52.9 0 49.35 0L49.35 0 34.3 0 34.3-34.9 48.7-34.9Q52.25-34.9 54.82-33.75 57.4-32.6 58.72-30.55 60.05-28.5 60.05-25.9L60.05-25.9Q60.05-22.85 58.42-20.8 56.8-18.75 54.1-17.9L54.1-17.9ZM41.3-29.25L41.3-20.5 47.7-20.5Q50.2-20.5 51.55-21.63 52.9-22.75 52.9-24.85L52.9-24.85Q52.9-26.95 51.55-28.1 50.2-29.25 47.7-29.25L47.7-29.25 41.3-29.25ZM48.35-5.7Q50.9-5.7 52.32-6.9 53.75-8.1 53.75-10.3L53.75-10.3Q53.75-12.55 52.25-13.83 50.75-15.1 48.2-15.1L48.2-15.1 41.3-15.1 41.3-5.7 48.35-5.7ZM64.65-13.95Q64.65-18.15 66.32-21.4 68-24.65 70.87-26.4 73.75-28.15 77.3-28.15L77.3-28.15Q80.4-28.15 82.72-26.9 85.05-25.65 86.45-23.75L86.45-23.75 86.45-27.7 93.5-27.7 93.5 0 86.45 0 86.45-4.05Q85.09-2.1 82.72-0.83 80.34 0.45 77.25 0.45L77.25 0.45Q73.75 0.45 70.87-1.35 68-3.15 66.32-6.43 64.65-9.7 64.65-13.95L64.65-13.95ZM86.45-13.85Q86.45-16.4 85.45-18.23 84.45-20.05 82.75-21.03 81.05-22 79.09-22L79.09-22Q77.15-22 75.5-21.05 73.84-20.1 72.82-18.28 71.8-16.45 71.8-13.95L71.8-13.95Q71.8-11.45 72.82-9.58 73.84-7.7 75.52-6.7 77.2-5.7 79.09-5.7L79.09-5.7Q81.05-5.7 82.75-6.68 84.45-7.65 85.45-9.47 86.45-11.3 86.45-13.85L86.45-13.85ZM115.69-28.1Q120.64-28.1 123.69-24.98 126.74-21.85 126.74-16.25L126.74-16.25 126.74 0 119.74 0 119.74-15.3Q119.74-18.6 118.09-20.38 116.44-22.15 113.59-22.15L113.59-22.15Q110.69-22.15 109.02-20.38 107.34-18.6 107.34-15.3L107.34-15.3 107.34 0 100.34 0 100.34-27.7 107.34-27.7 107.34-24.25Q108.74-26.05 110.92-27.08 113.09-28.1 115.69-28.1L115.69-28.1ZM158.89 0L149.79 0 140.39-11.8 140.39 0 133.39 0 133.39-37 140.39-37 140.39-15.95 149.69-27.7 158.79-27.7 146.59-13.8 158.89 0ZM199.94-24.1Q199.94-21.3 198.61-18.85 197.29-16.4 194.46-14.9 191.64-13.4 187.34-13.4L187.34-13.4 181.49-13.4 181.49 0 174.49 0 174.49-34.9 187.34-34.9Q191.39-34.9 194.24-33.5 197.09-32.1 198.51-29.65 199.94-27.2 199.94-24.1L199.94-24.1ZM187.04-19.05Q189.94-19.05 191.34-20.38 192.74-21.7 192.74-24.1L192.74-24.1Q192.74-29.2 187.04-29.2L187.04-29.2 181.49-29.2 181.49-19.05 187.04-19.05ZM211.88-23.4Q213.23-25.6 215.41-26.85 217.58-28.1 220.38-28.1L220.38-28.1 220.38-20.75 218.53-20.75Q215.23-20.75 213.56-19.2 211.88-17.65 211.88-13.8L211.88-13.8 211.88 0 204.88 0 204.88-27.7 211.88-27.7 211.88-23.4ZM237.38 0.45Q233.38 0.45 230.18-1.33 226.98-3.1 225.16-6.35 223.33-9.6 223.33-13.85L223.33-13.85Q223.33-18.1 225.21-21.35 227.08-24.6 230.33-26.38 233.58-28.15 237.58-28.15L237.58-28.15Q241.58-28.15 244.83-26.38 248.08-24.6 249.96-21.35 251.83-18.1 251.83-13.85L251.83-13.85Q251.83-9.6 249.91-6.35 247.98-3.1 244.71-1.33 241.43 0.45 237.38 0.45L237.38 0.45ZM237.38-5.65Q239.28-5.65 240.96-6.58 242.63-7.5 243.63-9.35 244.63-11.2 244.63-13.85L244.63-13.85Q244.63-17.8 242.56-19.93 240.48-22.05 237.48-22.05L237.48-22.05Q234.48-22.05 232.46-19.93 230.43-17.8 230.43-13.85L230.43-13.85Q230.43-9.9 232.41-7.78 234.38-5.65 237.38-5.65L237.38-5.65Z" opacity="1" transform="matrix(1,0,0,1,0,0)" fill="#191919" class="wordmark-text-0" data-fill-palette-color="primary" id="text-0"></path></svg></g></svg></g><g transform="matrix(1,0,0,1,0,73.17759629505994)"><svg viewBox="0 0 395.52 22.558342430656122" height="22.558342430656122" width="395.52"><g transform="matrix(1,0,0,1,0,0)"><svg width="395.52" viewBox="2.85 -38.2 897.61 51.2" height="22.558342430656122" data-palette-color="#2f2f2f"><path d="M14.9 0.35Q11.45 0.35 8.72-0.88 6-2.1 4.45-4.28 2.9-6.45 2.85-9.3L2.85-9.3 7.7-9.3Q7.95-6.85 9.73-5.18 11.5-3.5 14.9-3.5L14.9-3.5Q18.15-3.5 20.03-5.13 21.9-6.75 21.9-9.3L21.9-9.3Q21.9-11.3 20.8-12.55 19.7-13.8 18.05-14.45 16.4-15.1 13.6-15.85L13.6-15.85Q10.15-16.75 8.08-17.65 6-18.55 4.53-20.48 3.05-22.4 3.05-25.65L3.05-25.65Q3.05-28.5 4.5-30.7 5.95-32.9 8.58-34.1 11.2-35.3 14.6-35.3L14.6-35.3Q19.5-35.3 22.63-32.85 25.75-30.4 26.15-26.35L26.15-26.35 21.15-26.35Q20.9-28.35 19.05-29.88 17.2-31.4 14.15-31.4L14.15-31.4Q11.3-31.4 9.5-29.93 7.7-28.45 7.7-25.8L7.7-25.8Q7.7-23.9 8.78-22.7 9.85-21.5 11.43-20.88 13-20.25 15.85-19.45L15.85-19.45Q19.3-18.5 21.4-17.57 23.5-16.65 25-14.73 26.5-12.8 26.5-9.5L26.5-9.5Q26.5-6.95 25.15-4.7 23.8-2.45 21.15-1.05 18.5 0.35 14.9 0.35L14.9 0.35ZM35.55-31.85Q34.25-31.85 33.35-32.75 32.45-33.65 32.45-34.95L32.45-34.95Q32.45-36.25 33.35-37.15 34.25-38.05 35.55-38.05L35.55-38.05Q36.8-38.05 37.67-37.15 38.55-36.25 38.55-34.95L38.55-34.95Q38.55-33.65 37.67-32.75 36.8-31.85 35.55-31.85L35.55-31.85ZM33.2-27.4L37.75-27.4 37.75 0 33.2 0 33.2-27.4ZM78.45-27.9Q81.65-27.9 84.15-26.58 86.65-25.25 88.09-22.6 89.55-19.95 89.55-16.15L89.55-16.15 89.55 0 85.05 0 85.05-15.5Q85.05-19.6 83.02-21.78 81-23.95 77.55-23.95L77.55-23.95Q74-23.95 71.9-21.68 69.8-19.4 69.8-15.1L69.8-15.1 69.8 0 65.3 0 65.3-15.5Q65.3-19.6 63.27-21.78 61.25-23.95 57.8-23.95L57.8-23.95Q54.25-23.95 52.15-21.68 50.05-19.4 50.05-15.1L50.05-15.1 50.05 0 45.5 0 45.5-27.4 50.05-27.4 50.05-23.45Q51.4-25.6 53.67-26.75 55.95-27.9 58.7-27.9L58.7-27.9Q62.15-27.9 64.8-26.35 67.45-24.8 68.75-21.8L68.75-21.8Q69.9-24.7 72.55-26.3 75.2-27.9 78.45-27.9L78.45-27.9ZM101.54-22.35Q102.89-24.7 105.57-26.28 108.24-27.85 111.79-27.85L111.79-27.85Q115.44-27.85 118.42-26.1 121.39-24.35 123.09-21.18 124.79-18 124.79-13.8L124.79-13.8Q124.79-9.65 123.09-6.4 121.39-3.15 118.42-1.35 115.44 0.45 111.79 0.45L111.79 0.45Q108.29 0.45 105.62-1.13 102.94-2.7 101.54-5.05L101.54-5.05 101.54 13 96.99 13 96.99-27.4 101.54-27.4 101.54-22.35ZM120.14-13.8Q120.14-16.9 118.89-19.2 117.64-21.5 115.52-22.7 113.39-23.9 110.84-23.9L110.84-23.9Q108.34-23.9 106.22-22.68 104.09-21.45 102.82-19.13 101.54-16.8 101.54-13.75L101.54-13.75Q101.54-10.65 102.82-8.33 104.09-6 106.22-4.78 108.34-3.55 110.84-3.55L110.84-3.55Q113.39-3.55 115.52-4.78 117.64-6 118.89-8.33 120.14-10.65 120.14-13.8L120.14-13.8ZM130.79-37L135.34-37 135.34 0 130.79 0 130.79-37ZM145.44-31.85Q144.14-31.85 143.24-32.75 142.34-33.65 142.34-34.95L142.34-34.95Q142.34-36.25 143.24-37.15 144.14-38.05 145.44-38.05L145.44-38.05Q146.69-38.05 147.56-37.15 148.44-36.25 148.44-34.95L148.44-34.95Q148.44-33.65 147.56-32.75 146.69-31.85 145.44-31.85L145.44-31.85ZM143.09-27.4L147.64-27.4 147.64 0 143.09 0 143.09-27.4ZM153.69-13.75Q153.69-18 155.39-21.18 157.09-24.35 160.11-26.1 163.14-27.85 167.04-27.85L167.04-27.85Q172.09-27.85 175.36-25.4 178.64-22.95 179.69-18.6L179.69-18.6 174.79-18.6Q174.09-21.1 172.06-22.55 170.04-24 167.04-24L167.04-24Q163.14-24 160.74-21.33 158.34-18.65 158.34-13.75L158.34-13.75Q158.34-8.8 160.74-6.1 163.14-3.4 167.04-3.4L167.04-3.4Q170.04-3.4 172.04-4.8 174.04-6.2 174.79-8.8L174.79-8.8 179.69-8.8Q178.59-4.6 175.29-2.08 171.99 0.45 167.04 0.45L167.04 0.45Q163.14 0.45 160.11-1.3 157.09-3.05 155.39-6.25 153.69-9.45 153.69-13.75L153.69-13.75ZM188.08-31.85Q186.78-31.85 185.88-32.75 184.98-33.65 184.98-34.95L184.98-34.95Q184.98-36.25 185.88-37.15 186.78-38.05 188.08-38.05L188.08-38.05Q189.33-38.05 190.21-37.15 191.08-36.25 191.08-34.95L191.08-34.95Q191.08-33.65 190.21-32.75 189.33-31.85 188.08-31.85L188.08-31.85ZM185.73-27.4L190.28-27.4 190.28 0 185.73 0 185.73-27.4ZM210.73-23.65L203.58-23.65 203.58-7.5Q203.58-5.5 204.43-4.67 205.28-3.85 207.38-3.85L207.38-3.85 210.73-3.85 210.73 0 206.63 0Q202.83 0 200.93-1.75 199.03-3.5 199.03-7.5L199.03-7.5 199.03-23.65 195.48-23.65 195.48-27.4 199.03-27.4 199.03-34.3 203.58-34.3 203.58-27.4 210.73-27.4 210.73-23.65ZM241.23-14.75Q241.23-13.45 241.08-12L241.08-12 219.18-12Q219.43-7.95 221.95-5.68 224.48-3.4 228.08-3.4L228.08-3.4Q231.03-3.4 233-4.78 234.98-6.15 235.78-8.45L235.78-8.45 240.68-8.45Q239.58-4.5 236.28-2.02 232.98 0.45 228.08 0.45L228.08 0.45Q224.18 0.45 221.1-1.3 218.03-3.05 216.28-6.28 214.53-9.5 214.53-13.75L214.53-13.75Q214.53-18 216.23-21.2 217.93-24.4 221-26.13 224.08-27.85 228.08-27.85L228.08-27.85Q231.98-27.85 234.98-26.15 237.98-24.45 239.6-21.48 241.23-18.5 241.23-14.75L241.23-14.75ZM236.53-15.7Q236.53-18.3 235.38-20.18 234.23-22.05 232.25-23.03 230.28-24 227.88-24L227.88-24Q224.43-24 222-21.8 219.58-19.6 219.23-15.7L219.23-15.7 236.53-15.7ZM271.62 0.35Q268.17 0.35 265.45-0.88 262.72-2.1 261.17-4.28 259.62-6.45 259.57-9.3L259.57-9.3 264.42-9.3Q264.67-6.85 266.45-5.18 268.22-3.5 271.62-3.5L271.62-3.5Q274.87-3.5 276.75-5.13 278.62-6.75 278.62-9.3L278.62-9.3Q278.62-11.3 277.52-12.55 276.42-13.8 274.77-14.45 273.12-15.1 270.32-15.85L270.32-15.85Q266.87-16.75 264.8-17.65 262.72-18.55 261.25-20.48 259.77-22.4 259.77-25.65L259.77-25.65Q259.77-28.5 261.22-30.7 262.67-32.9 265.3-34.1 267.92-35.3 271.32-35.3L271.32-35.3Q276.22-35.3 279.35-32.85 282.47-30.4 282.87-26.35L282.87-26.35 277.87-26.35Q277.62-28.35 275.77-29.88 273.92-31.4 270.87-31.4L270.87-31.4Q268.02-31.4 266.22-29.93 264.42-28.45 264.42-25.8L264.42-25.8Q264.42-23.9 265.5-22.7 266.57-21.5 268.15-20.88 269.72-20.25 272.57-19.45L272.57-19.45Q276.02-18.5 278.12-17.57 280.22-16.65 281.72-14.73 283.22-12.8 283.22-9.5L283.22-9.5Q283.22-6.95 281.87-4.7 280.52-2.45 277.87-1.05 275.22 0.35 271.62 0.35L271.62 0.35ZM314.92-14.75Q314.92-13.45 314.77-12L314.77-12 292.87-12Q293.12-7.95 295.65-5.68 298.17-3.4 301.77-3.4L301.77-3.4Q304.72-3.4 306.7-4.78 308.67-6.15 309.47-8.45L309.47-8.45 314.37-8.45Q313.27-4.5 309.97-2.02 306.67 0.45 301.77 0.45L301.77 0.45Q297.87 0.45 294.8-1.3 291.72-3.05 289.97-6.28 288.22-9.5 288.22-13.75L288.22-13.75Q288.22-18 289.92-21.2 291.62-24.4 294.7-26.13 297.77-27.85 301.77-27.85L301.77-27.85Q305.67-27.85 308.67-26.15 311.67-24.45 313.3-21.48 314.92-18.5 314.92-14.75L314.92-14.75ZM310.22-15.7Q310.22-18.3 309.07-20.18 307.92-22.05 305.95-23.03 303.97-24 301.57-24L301.57-24Q298.12-24 295.7-21.8 293.27-19.6 292.92-15.7L292.92-15.7 310.22-15.7ZM319.22-13.75Q319.22-18 320.92-21.18 322.62-24.35 325.64-26.1 328.67-27.85 332.57-27.85L332.57-27.85Q337.62-27.85 340.89-25.4 344.17-22.95 345.22-18.6L345.22-18.6 340.32-18.6Q339.62-21.1 337.59-22.55 335.57-24 332.57-24L332.57-24Q328.67-24 326.27-21.33 323.87-18.65 323.87-13.75L323.87-13.75Q323.87-8.8 326.27-6.1 328.67-3.4 332.57-3.4L332.57-3.4Q335.57-3.4 337.57-4.8 339.57-6.2 340.32-8.8L340.32-8.8 345.22-8.8Q344.12-4.6 340.82-2.08 337.52 0.45 332.57 0.45L332.57 0.45Q328.67 0.45 325.64-1.3 322.62-3.05 320.92-6.25 319.22-9.45 319.22-13.75L319.22-13.75ZM371.02-27.4L375.57-27.4 375.57 0 371.02 0 371.02-4.05Q369.72-1.95 367.39-0.78 365.07 0.4 362.27 0.4L362.27 0.4Q359.07 0.4 356.52-0.93 353.97-2.25 352.49-4.9 351.02-7.55 351.02-11.35L351.02-11.35 351.02-27.4 355.52-27.4 355.52-11.95Q355.52-7.9 357.57-5.73 359.62-3.55 363.17-3.55L363.17-3.55Q366.82-3.55 368.92-5.8 371.02-8.05 371.02-12.35L371.02-12.35 371.02-27.4ZM387.81-22.95Q389.01-25.3 391.24-26.6 393.46-27.9 396.66-27.9L396.66-27.9 396.66-23.2 395.46-23.2Q387.81-23.2 387.81-14.9L387.81-14.9 387.81 0 383.26 0 383.26-27.4 387.81-27.4 387.81-22.95ZM404.26-31.85Q402.96-31.85 402.06-32.75 401.16-33.65 401.16-34.95L401.16-34.95Q401.16-36.25 402.06-37.15 402.96-38.05 404.26-38.05L404.26-38.05Q405.51-38.05 406.39-37.15 407.26-36.25 407.26-34.95L407.26-34.95Q407.26-33.65 406.39-32.75 405.51-31.85 404.26-31.85L404.26-31.85ZM401.91-27.4L406.46-27.4 406.46 0 401.91 0 401.91-27.4ZM426.91-23.65L419.76-23.65 419.76-7.5Q419.76-5.5 420.61-4.67 421.46-3.85 423.56-3.85L423.56-3.85 426.91-3.85 426.91 0 422.81 0Q419.01 0 417.11-1.75 415.21-3.5 415.21-7.5L415.21-7.5 415.21-23.65 411.66-23.65 411.66-27.4 415.21-27.4 415.21-34.3 419.76-34.3 419.76-27.4 426.91-27.4 426.91-23.65ZM457.41-14.75Q457.41-13.45 457.26-12L457.26-12 435.36-12Q435.61-7.95 438.13-5.68 440.66-3.4 444.26-3.4L444.26-3.4Q447.21-3.4 449.18-4.78 451.16-6.15 451.96-8.45L451.96-8.45 456.86-8.45Q455.76-4.5 452.46-2.02 449.16 0.45 444.26 0.45L444.26 0.45Q440.36 0.45 437.28-1.3 434.21-3.05 432.46-6.28 430.71-9.5 430.71-13.75L430.71-13.75Q430.71-18 432.41-21.2 434.11-24.4 437.18-26.13 440.26-27.85 444.26-27.85L444.26-27.85Q448.16-27.85 451.16-26.15 454.16-24.45 455.78-21.48 457.41-18.5 457.41-14.75L457.41-14.75ZM452.71-15.7Q452.71-18.3 451.56-20.18 450.41-22.05 448.43-23.03 446.46-24 444.06-24L444.06-24Q440.61-24 438.18-21.8 435.76-19.6 435.41-15.7L435.41-15.7 452.71-15.7ZM481.3-34.85L481.3-3.7 493.5-3.7 493.5 0 476.75 0 476.75-34.85 481.3-34.85ZM500.7-31.85Q499.4-31.85 498.5-32.75 497.6-33.65 497.6-34.95L497.6-34.95Q497.6-36.25 498.5-37.15 499.4-38.05 500.7-38.05L500.7-38.05Q501.95-38.05 502.82-37.15 503.7-36.25 503.7-34.95L503.7-34.95Q503.7-33.65 502.82-32.75 501.95-31.85 500.7-31.85L500.7-31.85ZM498.35-27.4L502.9-27.4 502.9 0 498.35 0 498.35-27.4ZM515.2-22.3Q516.6-24.75 519.3-26.3 522-27.85 525.45-27.85L525.45-27.85Q529.15-27.85 532.1-26.1 535.05-24.35 536.75-21.18 538.45-18 538.45-13.8L538.45-13.8Q538.45-9.65 536.75-6.4 535.05-3.15 532.07-1.35 529.1 0.45 525.45 0.45L525.45 0.45Q521.9 0.45 519.22-1.1 516.55-2.65 515.2-5.05L515.2-5.05 515.2 0 510.65 0 510.65-37 515.2-37 515.2-22.3ZM533.8-13.8Q533.8-16.9 532.55-19.2 531.3-21.5 529.17-22.7 527.05-23.9 524.5-23.9L524.5-23.9Q522-23.9 519.87-22.68 517.75-21.45 516.47-19.13 515.2-16.8 515.2-13.75L515.2-13.75Q515.2-10.65 516.47-8.33 517.75-6 519.87-4.78 522-3.55 524.5-3.55L524.5-3.55Q527.05-3.55 529.17-4.78 531.3-6 532.55-8.33 533.8-10.65 533.8-13.8L533.8-13.8ZM569.44-14.75Q569.44-13.45 569.29-12L569.29-12 547.39-12Q547.64-7.95 550.17-5.68 552.69-3.4 556.29-3.4L556.29-3.4Q559.24-3.4 561.22-4.78 563.19-6.15 563.99-8.45L563.99-8.45 568.89-8.45Q567.79-4.5 564.49-2.02 561.19 0.45 556.29 0.45L556.29 0.45Q552.39 0.45 549.32-1.3 546.24-3.05 544.49-6.28 542.74-9.5 542.74-13.75L542.74-13.75Q542.74-18 544.44-21.2 546.14-24.4 549.22-26.13 552.29-27.85 556.29-27.85L556.29-27.85Q560.19-27.85 563.19-26.15 566.19-24.45 567.82-21.48 569.44-18.5 569.44-14.75L569.44-14.75ZM564.74-15.7Q564.74-18.3 563.59-20.18 562.44-22.05 560.47-23.03 558.49-24 556.09-24L556.09-24Q552.64-24 550.22-21.8 547.79-19.6 547.44-15.7L547.44-15.7 564.74-15.7ZM579.99-22.95Q581.19-25.3 583.42-26.6 585.64-27.9 588.84-27.9L588.84-27.9 588.84-23.2 587.64-23.2Q579.99-23.2 579.99-14.9L579.99-14.9 579.99 0 575.44 0 575.44-27.4 579.99-27.4 579.99-22.95ZM606.79-23.65L599.64-23.65 599.64-7.5Q599.64-5.5 600.49-4.67 601.34-3.85 603.44-3.85L603.44-3.85 606.79-3.85 606.79 0 602.69 0Q598.89 0 596.99-1.75 595.09-3.5 595.09-7.5L595.09-7.5 595.09-23.65 591.54-23.65 591.54-27.4 595.09-27.4 595.09-34.3 599.64-34.3 599.64-27.4 606.79-27.4 606.79-23.65ZM637.28-14.75Q637.28-13.45 637.13-12L637.13-12 615.23-12Q615.48-7.95 618.01-5.68 620.53-3.4 624.13-3.4L624.13-3.4Q627.08-3.4 629.06-4.78 631.03-6.15 631.83-8.45L631.83-8.45 636.73-8.45Q635.63-4.5 632.33-2.02 629.03 0.45 624.13 0.45L624.13 0.45Q620.23 0.45 617.16-1.3 614.08-3.05 612.33-6.28 610.58-9.5 610.58-13.75L610.58-13.75Q610.58-18 612.28-21.2 613.98-24.4 617.06-26.13 620.13-27.85 624.13-27.85L624.13-27.85Q628.03-27.85 631.03-26.15 634.03-24.45 635.66-21.48 637.28-18.5 637.28-14.75L637.28-14.75ZM632.58-15.7Q632.58-18.3 631.43-20.18 630.28-22.05 628.31-23.03 626.33-24 623.93-24L623.93-24Q620.48-24 618.06-21.8 615.63-19.6 615.28-15.7L615.28-15.7 632.58-15.7ZM667.78-27.4L667.78-23.65 662.03-23.65 662.03 0 657.48 0 657.48-23.65 653.93-23.65 653.93-27.4 657.48-27.4 657.48-29.35Q657.48-33.95 659.85-36.08 662.23-38.2 667.48-38.2L667.48-38.2 667.48-34.4Q664.48-34.4 663.25-33.23 662.03-32.05 662.03-29.35L662.03-29.35 662.03-27.4 667.78-27.4ZM675.43-31.85Q674.13-31.85 673.23-32.75 672.33-33.65 672.33-34.95L672.33-34.95Q672.33-36.25 673.23-37.15 674.13-38.05 675.43-38.05L675.43-38.05Q676.68-38.05 677.55-37.15 678.43-36.25 678.43-34.95L678.43-34.95Q678.43-33.65 677.55-32.75 676.68-31.85 675.43-31.85L675.43-31.85ZM673.08-27.4L677.63-27.4 677.63 0 673.08 0 673.08-27.4ZM698.72-27.9Q703.72-27.9 706.82-24.88 709.92-21.85 709.92-16.15L709.92-16.15 709.92 0 705.42 0 705.42-15.5Q705.42-19.6 703.37-21.78 701.32-23.95 697.77-23.95L697.77-23.95Q694.17-23.95 692.05-21.7 689.92-19.45 689.92-15.15L689.92-15.15 689.92 0 685.37 0 685.37-27.4 689.92-27.4 689.92-23.5Q691.27-25.6 693.6-26.75 695.92-27.9 698.72-27.9L698.72-27.9ZM715.67-13.8Q715.67-18 717.37-21.18 719.07-24.35 722.05-26.1 725.02-27.85 728.67-27.85L728.67-27.85Q732.27-27.85 734.92-26.3 737.57-24.75 738.87-22.4L738.87-22.4 738.87-27.4 743.47-27.4 743.47 0 738.87 0 738.87-5.1Q737.52-2.7 734.85-1.13 732.17 0.45 728.62 0.45L728.62 0.45Q724.97 0.45 722.02-1.35 719.07-3.15 717.37-6.4 715.67-9.65 715.67-13.8L715.67-13.8ZM738.87-13.75Q738.87-16.85 737.62-19.15 736.37-21.45 734.25-22.68 732.12-23.9 729.57-23.9L729.57-23.9Q727.02-23.9 724.92-22.7 722.82-21.5 721.57-19.2 720.32-16.9 720.32-13.8L720.32-13.8Q720.32-10.65 721.57-8.33 722.82-6 724.92-4.78 727.02-3.55 729.57-3.55L729.57-3.55Q732.12-3.55 734.25-4.78 736.37-6 737.62-8.33 738.87-10.65 738.87-13.75L738.87-13.75ZM764.52-27.9Q769.52-27.9 772.62-24.88 775.72-21.85 775.72-16.15L775.72-16.15 775.72 0 771.22 0 771.22-15.5Q771.22-19.6 769.17-21.78 767.12-23.95 763.57-23.95L763.57-23.95Q759.97-23.95 757.84-21.7 755.72-19.45 755.72-15.15L755.72-15.15 755.72 0 751.17 0 751.17-27.4 755.72-27.4 755.72-23.5Q757.07-25.6 759.39-26.75 761.72-27.9 764.52-27.9L764.52-27.9ZM781.47-13.75Q781.47-18 783.17-21.18 784.87-24.35 787.89-26.1 790.92-27.85 794.82-27.85L794.82-27.85Q799.87-27.85 803.14-25.4 806.42-22.95 807.47-18.6L807.47-18.6 802.57-18.6Q801.87-21.1 799.84-22.55 797.82-24 794.82-24L794.82-24Q790.92-24 788.52-21.33 786.12-18.65 786.12-13.75L786.12-13.75Q786.12-8.8 788.52-6.1 790.92-3.4 794.82-3.4L794.82-3.4Q797.82-3.4 799.82-4.8 801.82-6.2 802.57-8.8L802.57-8.8 807.47-8.8Q806.37-4.6 803.07-2.08 799.77 0.45 794.82 0.45L794.82 0.45Q790.92 0.45 787.89-1.3 784.87-3.05 783.17-6.25 781.47-9.45 781.47-13.75L781.47-13.75ZM815.86-31.85Q814.56-31.85 813.66-32.75 812.76-33.65 812.76-34.95L812.76-34.95Q812.76-36.25 813.66-37.15 814.56-38.05 815.86-38.05L815.86-38.05Q817.11-38.05 817.99-37.15 818.86-36.25 818.86-34.95L818.86-34.95Q818.86-33.65 817.99-32.75 817.11-31.85 815.86-31.85L815.86-31.85ZM813.51-27.4L818.06-27.4 818.06 0 813.51 0 813.51-27.4ZM850.81-14.75Q850.81-13.45 850.66-12L850.66-12 828.76-12Q829.01-7.95 831.54-5.68 834.06-3.4 837.66-3.4L837.66-3.4Q840.61-3.4 842.59-4.78 844.56-6.15 845.36-8.45L845.36-8.45 850.26-8.45Q849.16-4.5 845.86-2.02 842.56 0.45 837.66 0.45L837.66 0.45Q833.76 0.45 830.69-1.3 827.61-3.05 825.86-6.28 824.11-9.5 824.11-13.75L824.11-13.75Q824.11-18 825.81-21.2 827.51-24.4 830.59-26.13 833.66-27.85 837.66-27.85L837.66-27.85Q841.56-27.85 844.56-26.15 847.56-24.45 849.19-21.48 850.81-18.5 850.81-14.75L850.81-14.75ZM846.11-15.7Q846.11-18.3 844.96-20.18 843.81-22.05 841.84-23.03 839.86-24 837.46-24L837.46-24Q834.01-24 831.59-21.8 829.16-19.6 828.81-15.7L828.81-15.7 846.11-15.7ZM861.36-22.95Q862.56-25.3 864.78-26.6 867.01-27.9 870.21-27.9L870.21-27.9 870.21-23.2 869.01-23.2Q861.36-23.2 861.36-14.9L861.36-14.9 861.36 0 856.81 0 856.81-27.4 861.36-27.4 861.36-22.95ZM900.46-14.75Q900.46-13.45 900.31-12L900.31-12 878.41-12Q878.66-7.95 881.18-5.68 883.71-3.4 887.31-3.4L887.31-3.4Q890.26-3.4 892.23-4.78 894.21-6.15 895.01-8.45L895.01-8.45 899.91-8.45Q898.81-4.5 895.51-2.02 892.21 0.45 887.31 0.45L887.31 0.45Q883.41 0.45 880.33-1.3 877.26-3.05 875.51-6.28 873.76-9.5 873.76-13.75L873.76-13.75Q873.76-18 875.46-21.2 877.16-24.4 880.23-26.13 883.31-27.85 887.31-27.85L887.31-27.85Q891.21-27.85 894.21-26.15 897.21-24.45 898.83-21.48 900.46-18.5 900.46-14.75L900.46-14.75ZM895.76-15.7Q895.76-18.3 894.61-20.18 893.46-22.05 891.48-23.03 889.51-24 887.11-24L887.11-24Q883.66-24 881.23-21.8 878.81-19.6 878.46-15.7L878.46-15.7 895.76-15.7Z" opacity="1" transform="matrix(1,0,0,1,0,0)" fill="#2f2f2f" class="slogan-text-1" data-fill-palette-color="secondary" id="text-1"></path></svg></g></svg></g></svg></g></svg></g><g transform="matrix(1,0,0,1,91.13833981435772,0)"><svg viewBox="0 0 213.24332037128454 213.24332037128454" height="213.24332037128454" width="213.24332037128454"><g><svg></svg></g><g id="icon-0"><svg viewBox="0 0 213.24332037128454 213.24332037128454" height="213.24332037128454" width="213.24332037128454"><g><path d="M0 106.622c0-58.886 47.736-106.622 106.622-106.622 58.886 0 106.622 47.736 106.621 106.622 0 58.886-47.736 106.622-106.621 106.621-58.886 0-106.622-47.736-106.622-106.621zM106.622 207.904c55.937 0 101.283-45.346 101.282-101.282 0-55.937-45.346-101.283-101.282-101.283-55.937 0-101.283 45.346-101.283 101.283 0 55.937 45.346 101.283 101.283 101.282z" data-fill-palette-color="accent" fill="#f3a83c" stroke="transparent"></path><ellipse rx="105.55544358378584" ry="105.55544358378584" cx="106.62166018564227" cy="106.62166018564227" fill="#f3a83c" stroke="transparent" stroke-width="0" fill-opacity="1" data-fill-palette-color="accent"></ellipse></g><g transform="matrix(1,0,0,1,43.244953091381674,77.60642009142587)"><svg viewBox="0 0 126.75341418852119 58.03048018843279" height="58.03048018843279" width="126.75341418852119"><g><svg xmlns="http://www.w3.org/2000/svg" xmlns:xlink="http://www.w3.org/1999/xlink" version="1.1" x="0" y="0" viewBox="0.1402744143813982 24.269000000000002 99.85980765718202 45.71799999999999" enable-background="new 0 0 100 100" xml:space="preserve" width="126.75341418852119" height="58.03048018843279" class="icon-cg-0" data-fill-palette-color="quaternary" id="cg-0"><path d="M49.701 40.913c0.552-0.154 1.069-0.347 1.557-0.573 0.487-0.229 0.895-0.498 1.215-0.809 0.521-0.505 0.609-0.881 0.254-1.126-0.353-0.246-1.159-0.463-2.424-0.652l-3.882 3.685c0.478-0.025 1.008-0.08 1.587-0.164C48.584 41.188 49.15 41.069 49.701 40.913z" fill="#ffffff" data-fill-palette-color="quaternary"></path><path d="M51.33 34.744l3.326-3.112c-0.423 0.013-0.866 0.057-1.334 0.132-0.461 0.074-0.929 0.183-1.394 0.324-0.468 0.142-0.897 0.312-1.296 0.513-0.398 0.2-0.742 0.434-1.027 0.698-0.451 0.416-0.539 0.73-0.265 0.948C49.621 34.462 50.283 34.629 51.33 34.744z" fill="#ffffff" data-fill-palette-color="quaternary"></path><path d="M75.028 49.957c0.348 0 0.679-0.138 0.925-0.382l23.665-23.077c0.372-0.373 0.485-0.934 0.283-1.423-0.201-0.488-0.678-0.806-1.206-0.806h-72.69c-0.315 0-0.619 0.113-0.857 0.32L0.589 47.666c-0.41 0.357-0.557 0.932-0.366 1.441 0.19 0.512 0.679 0.85 1.224 0.85H75.028zM37.502 38.996l5.334-0.042c-0.807 0.717-1.043 1.281-0.714 1.693 0.333 0.415 1.015 0.679 2.053 0.792l4.264-3.989c-0.099-0.024-0.239-0.049-0.415-0.079-0.183-0.029-0.383-0.054-0.605-0.078-0.79-0.114-1.547-0.25-2.264-0.408-0.716-0.157-1.276-0.37-1.679-0.642-0.407-0.268-0.591-0.607-0.554-1.016 0.04-0.408 0.403-0.923 1.093-1.543 0.704-0.633 1.565-1.198 2.589-1.696 1.021-0.5 2.109-0.927 3.267-1.283 1.157-0.358 2.354-0.646 3.591-0.864 1.235-0.219 2.432-0.367 3.584-0.445l1.565-1.466 2.194-0.087-1.561 1.475c1.043 0.026 1.957 0.115 2.739 0.268 0.786 0.156 1.376 0.387 1.775 0.694 0.403 0.309 0.583 0.705 0.548 1.189-0.035 0.485-0.361 1.066-0.984 1.747l-5.31 0.125c0.517-0.517 0.663-0.948 0.445-1.292-0.221-0.343-0.749-0.502-1.595-0.478l-3.596 3.398c0.26 0.032 0.521 0.064 0.794 0.096 0.272 0.033 0.551 0.073 0.847 0.118 1.581 0.224 2.668 0.521 3.273 0.887 0.604 0.37 0.929 0.762 0.977 1.174 0.049 0.414-0.093 0.83-0.432 1.25-0.342 0.42-0.678 0.793-1.01 1.123-0.295 0.288-0.801 0.653-1.527 1.093-0.719 0.44-1.656 0.871-2.803 1.29-1.15 0.416-2.499 0.786-4.046 1.105-1.551 0.318-3.312 0.505-5.276 0.561l-1.727 1.631-2.263-0.021 1.733-1.622c-2.734-0.116-4.481-0.559-5.24-1.328C35.812 41.565 36.125 40.458 37.502 38.996z" fill="#ffffff" data-fill-palette-color="quaternary"></path><path d="M76.558 54.748H0.45v5.226h77.191c0.69 0 1.355-0.275 1.846-0.766L100 38.884v-7.58L76.558 54.748z" fill="#ffffff" data-fill-palette-color="quaternary"></path><path d="M0.45 64.761v5.226h79.804c0.691 0 1.356-0.276 1.846-0.766L100 51.398v-7.467L79.174 64.761H0.45z" fill="#ffffff" data-fill-palette-color="quaternary"></path></svg></g></svg></g></svg></g></svg></g><g></g></svg></g><defs></defs></svg><rect width="290.18532906671874" height="247.2" fill="none" stroke="none" visibility="hidden"></rect></g></svg></g></svg>
